<svg width="3783" height="707" viewBox="0 0 3783 707" fill="none" xmlns="http://www.w3.org/2000/svg">
<g clip-path="url(#clip0_1514_3)">
<path d="M1597.33 347.956V695.912H1653.35H1709.36V506.354V316.87L1712.18 316.128C1725.24 312.641 1757.44 306.483 1775.76 303.887C1796.31 300.993 1807.59 300.251 1822.8 300.697C1834.45 300.993 1837.79 301.364 1844.02 302.996C1874.51 310.861 1889.42 332.821 1895.13 378.004C1897.58 397.442 1897.81 410.648 1897.81 553.243V695.912H1954.64H2011.39L2011.1 546.937C2010.8 396.477 2010.72 393.732 2007.98 364.649C2002.93 312.196 1990.92 273.914 1971.18 247.576C1949.67 218.79 1918.88 202.69 1874.73 196.903C1861.97 195.271 1835.86 194.678 1823.54 195.79C1795.35 198.387 1754.47 207.958 1715.89 221.015L1709.36 223.241V111.584V0.000366211H1653.35H1597.33V347.956Z" fill="white"/>
<path d="M2895.68 349.811V695.912H2951.69H3007.7V349.811V3.70996H2951.69H2895.68V349.811Z" fill="white"/>
<path d="M2146.35 68.9987V128.352H2202.36H2258.37V68.9987V9.64594H2202.36H2146.35V68.9987Z" fill="white"/>
<path d="M3430.59 108.689V207.734L3428.96 207.363C3420.35 205.434 3379.1 199.499 3357.88 197.199C3337.63 194.973 3301.72 194.825 3285.18 196.828C3217.89 205.063 3173.45 234.072 3146.89 287.044C3124.78 331.039 3114.69 394.769 3117.51 472.967C3119.43 526.829 3125.07 564.073 3136.5 597.311C3159.13 663.341 3200.23 696.356 3270.71 705.259C3285.4 707.114 3315.6 707.188 3327.47 705.333C3356.62 700.807 3387.34 691.682 3418.94 678.105L3430.59 673.06V684.485V695.911H3487.35H3544.1L3543.96 352.926L3543.73 10.0148L3487.2 9.79218L3430.59 9.6438V108.689ZM3374.58 299.731C3383.55 300.621 3399.73 302.402 3410.56 303.737L3430.22 306.111L3430.44 443.735L3430.59 581.434L3427.85 582.324C3419.39 584.995 3395.28 591.45 3384.96 593.824C3328.28 606.511 3296.68 605.249 3272.94 589.447C3251.2 574.979 3238.51 546.564 3233.69 501.53C3229.09 459.464 3230.65 409.533 3237.4 377.557C3244.37 344.542 3258.62 321.246 3279.46 308.93C3287.03 304.479 3298.98 300.25 3308.92 298.692C3319.01 297.06 3352.77 297.579 3374.58 299.731Z" fill="white"/>
<path d="M3592.33 18.9187V27.4507H3607.54H3622.75V68.6267V109.803H3632.76H3642.78V68.6267V27.4507H3657.62H3672.45V18.9187V10.3868H3632.39H3592.33V18.9187Z" fill="white"/>
<path d="M3684.33 60.0948V109.803H3693.97H3703.62L3703.76 71.3718L3703.99 33.015L3713.85 70.1105C3719.27 90.5131 3723.87 107.8 3724.09 108.467C3724.46 109.654 3725.58 109.803 3733.66 109.803H3742.86L3743.53 107.354C3743.9 106.093 3748.5 88.8809 3753.77 69.2202L3763.34 33.4602L3763.56 71.6686L3763.71 109.803H3773.36H3783V60.0948V10.3868L3767.35 10.5351L3751.62 10.7577L3742.94 43.6243C3738.11 61.727 3734.03 76.6393 3733.89 76.8619C3733.66 77.0103 3729.58 62.0979 3724.76 43.7727L3716.01 10.3868H3700.13H3684.33V60.0948Z" fill="white"/>
<path d="M0 356.859V695.986L147.492 695.69C307.967 695.467 297.803 695.764 323.844 691.386C360.049 685.377 393.287 671.577 416.212 653.104C432.682 639.824 448.114 620.015 456.943 600.725C468.516 575.574 474.377 547.604 475.342 512.66C476.752 461.32 467.329 422.073 446.853 394.177C433.869 376.371 411.538 359.901 387.055 349.959L382.826 348.253L389.948 343.802C432.905 317.241 452.417 284.671 459.02 228.138C460.875 211.964 460.875 170.195 459.02 157.656C454.791 129.464 445.74 105.203 432.682 86.8039C426.821 78.5687 415.247 66.253 407.309 59.8726C384.977 41.8441 353.965 29.009 317.538 22.7028C290.829 18.0288 298.693 18.2514 142.669 18.0288L0 17.7321V356.859ZM276.584 125.68C297.506 129.167 312.122 136.067 322.879 147.492C336.901 162.405 342.837 183.252 341.798 214.412C340.092 264.788 321.247 291.2 280.442 300.326L271.91 302.255L193.119 302.477L114.254 302.774V213.3V123.825L191.635 124.122C261.152 124.345 269.684 124.493 276.584 125.68ZM284.523 409.386C321.025 416.435 342.169 432.757 351.591 461.32C355.301 472.3 356.414 480.832 356.414 497.08C356.339 550.72 335.269 578.616 287.787 587.742C279.478 589.3 277.994 589.374 196.829 589.596L114.254 589.893V498.564V407.235L195.345 407.532C274.358 407.754 276.584 407.828 284.523 409.386Z" fill="white"/>
<path d="M765.836 18.1387C724.611 20.3527 695.677 25.2386 666.896 34.8578C604.295 55.7756 563.986 95.3974 549.71 150.059C542.61 177.389 542.076 213.27 548.336 245.181C556.047 284.269 576.888 313.737 618.418 344.121L627.503 350.763L617.502 358.397C575.667 390.003 555.054 415.883 543.374 451.306C535.969 473.904 533.449 492.302 533.449 524.595C533.449 550.399 534.518 560.629 539.099 578.417C556.352 645.293 609.181 685.678 698.654 700.488C725.374 704.916 748.506 706.596 783.013 706.596C810.496 706.596 824.314 705.832 845.69 703.237C933.026 692.625 992.268 658.118 1019.67 602.083C1032.42 575.897 1037.77 550.17 1037.77 514.671C1037.77 467.186 1027.92 434.358 1004.86 404.737C992.955 389.469 971.426 370.536 947.76 354.504C945.088 352.672 942.951 350.992 942.951 350.687C942.951 350.381 946.157 348.091 949.974 345.572C959.593 339.312 971.655 330.151 980.511 322.593C1015.17 292.667 1027.84 259.916 1027.92 200.139C1027.92 175.557 1025.17 157.54 1018.53 138.76C1003.41 96.0845 970.51 63.2572 921.956 42.492C893.557 30.3536 859.355 22.4903 820.421 19.2076C810.725 18.4442 774.234 17.6807 765.836 18.1387ZM799.427 132.195C828.895 133.645 848.82 137.997 864.852 146.7C888.06 159.22 899.435 178.992 900.733 209.071C901.878 235.639 895.007 254.495 877.754 272.512C868.211 282.437 851.416 294.27 835.384 302.362L830.803 304.729H784.311H737.895L728.199 299.156C687.737 276.024 671.171 251.365 671.171 214.263C671.171 188.841 678.042 170.671 692.776 156.93C708.884 141.89 733.772 134.027 770.416 132.271C776.906 131.889 782.784 131.584 783.395 131.584C784.005 131.507 791.258 131.813 799.427 132.195ZM840.652 412.677C852.179 417.105 858.21 419.853 865.845 424.281C896.382 441.916 910.887 465.659 910.887 498.257C910.887 546.505 885.465 576.966 835.308 588.646C805.458 595.67 760.874 595.517 732.016 588.341C701.021 580.554 680.256 565.667 669.11 543.299C663.079 531.237 660.254 517.419 660.254 500.165C660.254 478.255 664.987 462.91 676.591 447.489C686.898 433.824 706.136 420.998 729.573 412.066L736.444 409.471L784.158 409.394L831.948 409.318L840.652 412.677Z" fill="#BE1E2D"/>
<path d="M1253.46 195.642C1244.41 196.236 1228.83 198.313 1218.96 200.316C1142.32 215.6 1097.43 261.301 1090.61 331.115C1089.42 343.06 1090.01 370.51 1091.72 381.342C1100.77 439.879 1132.82 468.813 1210.05 488.177C1226.6 492.332 1240.4 495.077 1269.78 500.122C1313.63 507.615 1329.43 511.473 1342.49 517.78C1357.25 524.976 1362.67 532.692 1364 548.272C1364.59 555.098 1363.41 566.152 1361.33 572.31C1358.07 582.177 1350.2 590.635 1339.67 595.68C1318 605.993 1277.42 608.144 1213.39 602.357C1192.25 600.503 1150.41 595.754 1121.77 592.119C1109.3 590.561 1098.99 589.522 1098.77 589.893C1098.4 590.338 1096.39 636.782 1094.84 681L1094.69 684.338L1099.51 685.303C1119.91 689.532 1181.71 698.954 1210.8 702.144C1244.55 705.928 1254.5 706.596 1281.65 706.596C1309.84 706.596 1323.94 705.631 1344.27 702.144C1403.03 692.277 1441.98 666.755 1461.27 625.727C1471.21 604.583 1475.81 580.619 1475.88 550.127C1475.88 531.431 1474.99 520.747 1472.32 507.022C1467.65 483.652 1459.26 466.736 1444.94 451.898C1429.59 436.095 1411.19 425.56 1381.81 415.841C1359.55 408.422 1339.07 403.822 1297.23 396.922C1245.37 388.39 1226.67 383.271 1214.21 374.368C1209.31 370.881 1206.64 367.617 1204.05 361.682C1201.67 356.488 1201.15 341.724 1203.01 333.563C1207.38 313.903 1221.11 303.738 1249.52 299.213C1261.17 297.358 1305.61 297.358 1329.5 299.213C1362.37 301.81 1414.75 307.225 1448.21 311.529C1454.14 312.27 1459.04 312.79 1459.19 312.716C1459.48 312.493 1461.56 217.899 1461.34 217.677C1461.04 217.38 1437.45 213.077 1421.13 210.406C1377.43 203.135 1336.03 198.09 1302.42 195.865C1291.59 195.197 1262.51 195.049 1253.46 195.642Z" fill="white"/>
<path d="M2553.66 195.938C2511.51 199.648 2473.6 213.448 2446.45 235.037C2439.55 240.527 2427.01 252.769 2421.22 259.669C2393.11 293.425 2375.37 342.243 2368.99 403.599C2367.06 421.776 2366.55 439.879 2366.92 468.145C2367.36 497.896 2368.33 512.289 2371.15 533.062C2383.24 620.089 2418.55 671.28 2482.06 693.686C2528.88 710.156 2593.27 711.121 2692.39 696.95C2720.21 692.944 2770.44 684.264 2771.33 683.225C2771.63 682.854 2769.63 596.347 2769.33 596.051C2769.18 595.902 2763.47 596.273 2756.57 596.867C2675.03 603.618 2584.15 606.363 2559.74 602.802C2535.26 599.315 2518.71 591.97 2505.43 578.69C2489.41 562.665 2481.84 541.669 2479.84 508.06L2479.32 499.306L2629.78 499.157L2780.31 498.935L2784.17 459.984C2788.17 419.253 2788.62 410.425 2787.36 391.358C2783.13 326.737 2765.4 279.552 2733.2 247.13C2702.85 216.712 2662.12 200.316 2605.29 195.864C2594.24 194.974 2563.97 195.048 2553.66 195.938ZM2596.76 296.022C2650.92 301.364 2674.51 331.337 2676.59 397.441L2677.03 411.76H2578.14H2479.24L2479.76 400.706C2481.54 360.197 2490.37 335.047 2508.77 317.686C2522.35 304.851 2539.26 298.248 2564.78 295.8C2570.87 295.206 2589.71 295.354 2596.76 296.022Z" fill="white"/>
<path d="M2146.35 450.711V695.912H2202.36H2258.37L2258.23 450.859L2258 205.88L2202.21 205.658L2146.35 205.509V450.711Z" fill="white"/>
</g>
<defs>
<clipPath id="clip0_1514_3">
<rect width="3783" height="706.863" fill="white" transform="matrix(1 0 0 -1 0 706.863)"/>
</clipPath>
</defs>
</svg>
