<svg width="2009" height="377" viewBox="0 0 2009 377" fill="none" xmlns="http://www.w3.org/2000/svg">
<g clip-path="url(#clip0_1875_2)">
<path d="M848.279 185.523V370.309H878.026H907.773V269.642V169.015L909.27 168.621C916.205 166.769 933.304 163.499 943.036 162.12C953.95 160.583 959.939 160.189 968.016 160.425C974.201 160.583 975.974 160.78 979.284 161.647C995.477 165.823 1003.4 177.486 1006.43 201.48C1007.73 211.803 1007.85 218.816 1007.85 294.543V370.309H1038.03H1068.17L1068.01 291.194C1067.85 211.291 1067.82 209.833 1066.36 194.388C1063.68 166.532 1057.3 146.202 1046.82 132.215C1035.39 116.928 1019.04 108.378 995.595 105.305C988.819 104.438 974.95 104.123 968.41 104.714C953.438 106.093 931.728 111.176 911.24 118.11L907.773 119.292V59.9951V0.737711H878.026H848.279V185.523Z" fill="black"/>
<path d="M1537.78 186.508V370.309H1567.52H1597.27V186.508V2.7077H1567.52H1537.78V186.508Z" fill="black"/>
<path d="M1139.84 37.3805V68.9004H1169.58H1199.33V37.3805V5.86058H1169.58H1139.84V37.3805Z" fill="black"/>
<path d="M1821.85 58.4581V111.057L1820.98 110.86C1816.41 109.836 1794.51 106.684 1783.24 105.462C1772.48 104.28 1753.41 104.201 1744.63 105.265C1708.89 109.639 1685.29 125.044 1671.18 153.175C1659.44 176.54 1654.08 210.384 1655.58 251.911C1656.61 280.516 1659.6 300.295 1665.67 317.946C1677.69 353.012 1699.51 370.545 1736.94 375.273C1744.74 376.258 1760.78 376.297 1767.08 375.312C1782.57 372.909 1798.88 368.062 1815.66 360.852L1821.85 358.173V364.241V370.308H1851.99H1882.13L1882.05 188.162L1881.93 6.05621L1851.91 5.93801L1821.85 5.85921V58.4581ZM1792.1 159.913C1796.87 160.386 1805.46 161.331 1811.21 162.04L1821.65 163.301L1821.77 236.388L1821.85 309.514L1820.39 309.987C1815.9 311.405 1803.09 314.833 1797.62 316.094C1767.52 322.831 1750.73 322.161 1738.12 313.769C1726.58 306.086 1719.84 290.996 1717.28 267.08C1714.84 244.741 1715.67 218.225 1719.25 201.243C1722.96 183.71 1730.52 171.339 1741.59 164.798C1745.61 162.434 1751.95 160.189 1757.23 159.361C1762.59 158.494 1780.52 158.77 1792.1 159.913Z" fill="black"/>
<path d="M1907.74 10.7859V15.3169H1915.82H1923.9V37.1838V59.0508H1929.22H1934.53V37.1838V15.3169H1942.41H1950.29V10.7859V6.25494H1929.02H1907.74V10.7859Z" fill="black"/>
<path d="M1956.6 32.6529V59.0508H1961.72H1966.84L1966.92 38.6416L1967.04 18.2719L1972.28 37.9718C1975.16 48.8068 1977.6 57.987 1977.72 58.3416C1977.91 58.972 1978.5 59.0508 1982.8 59.0508H1987.68L1988.04 57.7506C1988.24 57.0808 1990.68 47.94 1993.48 37.499L1998.56 18.5083L1998.68 38.7992L1998.76 59.0508H2003.88H2009V32.6529V6.25494L2000.69 6.33374L1992.33 6.45194L1987.72 23.9061C1985.16 33.5197 1983 41.439 1982.92 41.5572C1982.8 41.636 1980.63 33.7167 1978.07 23.9849L1973.42 6.25494H1964.99H1956.6V32.6529Z" fill="black"/>
<path d="M0 190.253V370.35L78.327 370.192C163.549 370.074 158.151 370.231 171.981 367.907C191.208 364.715 208.859 357.387 221.033 347.576C229.78 340.524 237.975 330.004 242.664 319.76C248.81 306.404 251.923 291.55 252.435 272.992C253.184 245.728 248.18 224.885 237.306 210.071C230.411 200.615 218.551 191.868 205.549 186.589L203.303 185.682L207.086 183.318C229.898 169.213 240.26 151.917 243.767 121.894C244.752 113.305 244.752 91.1226 243.767 84.464C241.521 69.4921 236.715 56.6083 229.78 46.8372C226.668 42.4638 220.521 35.9234 216.305 32.535C204.446 22.9608 187.977 16.1446 168.632 12.7956C154.448 10.3134 158.624 10.4317 75.766 10.3135L0 10.1559V190.253ZM146.883 67.4827C157.994 69.3345 165.755 72.9987 171.468 79.0663C178.915 86.9856 182.067 98.057 181.515 114.605C180.609 141.357 170.602 155.384 148.932 160.23L144.401 161.254L102.558 161.373L60.6758 161.53V114.014V66.4977L101.77 66.6553C138.688 66.7735 143.219 66.8523 146.883 67.4827ZM151.099 218.148C170.483 221.891 181.712 230.559 186.716 245.728C188.686 251.559 189.277 256.09 189.277 264.719C189.238 293.205 178.048 308.019 152.832 312.865C148.419 313.693 147.631 313.732 104.528 313.85L60.6758 314.008V265.507V217.005L103.74 217.163C145.701 217.281 146.883 217.32 151.099 218.148Z" fill="black"/>
<path d="M406.704 10.3705C384.811 11.5462 369.446 14.141 354.161 19.2493C320.916 30.3579 299.51 51.3995 291.929 80.4279C288.158 94.9421 287.874 113.997 291.199 130.944C295.294 151.702 306.362 167.351 328.417 183.487L333.241 187.014L327.93 191.068C305.713 207.853 294.766 221.597 288.563 240.408C284.631 252.409 283.293 262.18 283.293 279.329C283.293 293.033 283.861 298.465 286.293 307.912C295.456 343.427 323.511 364.874 371.027 372.739C385.217 375.09 397.501 375.982 415.826 375.982C430.422 375.982 437.76 375.577 449.112 374.199C495.492 368.563 526.953 350.238 541.508 320.48C548.278 306.574 551.116 292.911 551.116 274.059C551.116 248.841 545.886 231.408 533.643 215.678C527.318 207.569 515.885 197.515 503.317 189.001C501.898 188.028 500.763 187.136 500.763 186.973C500.763 186.811 502.466 185.595 504.493 184.257C509.601 180.933 516.007 176.068 520.71 172.054C539.116 156.161 545.846 138.768 545.886 107.024C545.886 93.9691 544.427 84.401 540.9 74.4276C532.872 51.7644 515.399 34.3311 489.614 23.3036C474.532 16.8573 456.369 12.6814 435.692 10.9381C430.543 10.5327 411.164 10.1273 406.704 10.3705ZM424.543 70.9409C440.192 71.7113 450.774 74.0222 459.288 78.644C471.613 85.293 477.654 95.7935 478.343 111.767C478.951 125.876 475.302 135.89 466.139 145.458C461.072 150.729 452.152 157.013 443.638 161.31L441.206 162.567H416.515H391.866L386.717 159.607C365.229 147.323 356.432 134.228 356.432 114.524C356.432 101.023 360.08 91.3743 367.905 84.0767C376.46 76.0898 389.676 71.914 409.137 70.9815C412.583 70.7788 415.705 70.6166 416.029 70.6166C416.353 70.5761 420.205 70.7382 424.543 70.9409ZM446.436 219.894C452.558 222.245 455.761 223.705 459.815 226.056C476.032 235.422 483.735 248.03 483.735 265.342C483.735 290.965 470.234 307.141 443.598 313.344C427.746 317.074 404.069 316.993 388.744 313.182C372.284 309.047 361.256 301.141 355.337 289.262C352.134 282.856 350.634 275.518 350.634 266.356C350.634 254.72 353.148 246.571 359.31 238.381C364.783 231.124 375 224.313 387.447 219.57L391.095 218.191L416.434 218.151L441.814 218.11L446.436 219.894Z" fill="#BE1E2D"/>
<path d="M665.66 104.635C660.853 104.951 652.579 106.054 647.339 107.118C606.639 115.234 582.802 139.504 579.177 176.58C578.547 182.923 578.862 197.501 579.768 203.253C584.575 234.34 601.596 249.706 642.611 259.989C651.397 262.196 658.726 263.653 674.328 266.333C697.613 270.312 706.006 272.361 712.94 275.71C720.781 279.532 723.657 283.629 724.366 291.903C724.681 295.528 724.051 301.398 722.948 304.669C721.214 309.909 717.038 314.4 711.443 317.08C699.938 322.556 678.386 323.699 644.384 320.626C633.155 319.641 610.934 317.119 595.725 315.188C589.106 314.361 583.63 313.809 583.511 314.006C583.314 314.243 582.251 338.907 581.423 362.389L581.344 364.162L583.905 364.675C594.74 366.92 627.56 371.924 643.005 373.618C660.932 375.628 666.212 375.982 680.632 375.982C695.604 375.982 703.09 375.47 713.886 373.618C745.09 368.378 765.775 354.825 776.019 333.037C781.299 321.808 783.742 309.081 783.781 292.888C783.781 282.959 783.308 277.286 781.89 269.997C779.408 257.586 774.955 248.603 767.351 240.723C759.195 232.33 749.424 226.736 733.822 221.574C722.002 217.634 711.128 215.191 688.906 211.527C661.366 206.996 651.437 204.278 644.818 199.55C642.217 197.698 640.799 195.964 639.42 192.812C638.159 190.054 637.883 182.214 638.868 177.88C641.193 167.439 648.482 162.041 663.572 159.638C669.758 158.653 693.358 158.653 706.045 159.638C723.499 161.017 751.315 163.893 769.085 166.178C772.237 166.572 774.837 166.848 774.916 166.808C775.074 166.69 776.177 116.455 776.059 116.337C775.901 116.18 763.372 113.894 754.704 112.476C731.497 108.615 709.512 105.936 691.664 104.754C685.912 104.399 670.467 104.32 665.66 104.635Z" fill="black"/>
<path d="M1356.14 104.793C1333.77 106.763 1313.63 114.092 1299.21 125.557C1295.55 128.473 1288.89 134.974 1285.82 138.638C1270.88 156.565 1261.47 182.49 1258.08 215.074C1257.05 224.726 1256.78 234.34 1256.98 249.351C1257.21 265.151 1257.72 272.794 1259.22 283.826C1265.64 330.042 1284.4 357.228 1318.12 369.127C1342.99 377.874 1377.18 378.386 1429.82 370.861C1444.6 368.733 1471.27 364.123 1471.74 363.572C1471.9 363.375 1470.84 317.434 1470.68 317.277C1470.6 317.198 1467.57 317.395 1463.9 317.71C1420.6 321.296 1372.34 322.753 1359.38 320.862C1346.37 319.01 1337.59 315.11 1330.53 308.057C1322.02 299.547 1318.01 288.397 1316.94 270.549L1316.67 265.899L1396.57 265.821L1476.51 265.702L1478.56 245.017C1480.69 223.387 1480.92 218.698 1480.25 208.573C1478.01 174.255 1468.59 149.197 1451.49 131.979C1435.38 115.825 1413.75 107.118 1383.57 104.754C1377.7 104.281 1361.62 104.32 1356.14 104.793ZM1379.04 157.944C1407.8 160.78 1420.33 176.698 1421.43 211.803L1421.67 219.408H1369.15H1316.63L1316.9 213.537C1317.85 192.025 1322.54 178.668 1332.31 169.448C1339.52 162.632 1348.5 159.126 1362.05 157.825C1365.29 157.51 1375.29 157.589 1379.04 157.944Z" fill="black"/>
<path d="M1139.84 240.092V370.309H1169.58H1199.33L1199.25 240.171L1199.13 110.072L1169.51 109.954L1139.84 109.875V240.092Z" fill="black"/>
</g>
<defs>
<clipPath id="clip0_1875_2">
<rect width="2009" height="375.387" fill="white" transform="matrix(1 0 0 -1 0 376.125)"/>
</clipPath>
</defs>
</svg>
