<svg width="800" height="800" fill="none" xmlns="http://www.w3.org/2000/svg"><g clip-path="url(#clip0_446_141)"><path fill-rule="evenodd" clip-rule="evenodd" d="M800 400C800 179.086 620.914 0 400 0S0 179.086 0 400s179.086 400 400 400 400-179.086 400-400zM547.052 248.989L523.055 139l-58.494 81.992-76.493-23.998-5.999 76.993-101.99 18.998 84.992 69.993 181.981-113.989zm77.493 32.997c-25.998-10.499-49.995-13.999-67.493-14.999L373.57 381.976c-15.499 31.996-62.494 118.488-136.987 151.485-10.498-4.5-132.486-31.497-135.486-11.499-3 20.498 64.494 59.494 75.992 63.993-.309 2.476-1.087 6.462-2.038 11.34v.002l-.001.001c-3.661 18.768-9.896 50.731-1.96 60.65 16.998 21.498 74.992-60.994 80.492-79.492 10.999 3 37.496 8.999 73.492 8.999 10.499 0 20.998-.5 30.997-1.5 1 2.5 2.5 7.5 3 10.499 2 9.499 5 19.998 12.499 19.998 7.499 0 19.998-28.497 21.998-34.496 0-.25.125-.625.25-1v-.001c.125-.375.25-.749.25-.999 47.995-10.499 93.49-31.997 134.986-63.494h.001c.999-1 1.499-1.5 2.499-2 1 2 2.5 5 3.999 7.5 12.499 24.497 23.498 44.495 35.997 44.495 3 0 6.999-1.5 10.499-6.499 19.498-28.997-8.999-54.495-21.498-64.994 141.486-65.493 140.986-121.987 133.487-148.985-7.5-26.997-35.497-49.995-71.493-63.993zm-39.996 89.991c15.498 0 27.997-12.499 27.997-27.997 0-15.499-12.499-27.998-27.997-27.998-15.499 0-27.997 12.499-27.997 27.998 0 15.498 12.498 27.997 27.997 27.997z" fill="#000"/></g><defs><clipPath id="clip0_446_141"><path fill="#fff" d="M0 0h800v800H0z"/></clipPath></defs></svg>