<svg width="800" height="800" fill="none" xmlns="http://www.w3.org/2000/svg"><g clip-path="url(#clip0_446_108)"><path d="M400 0C179.094 0 0 179.094 0 400s179.094 400 400 400 400-179.094 400-400S620.906 0 400 0zm235.834 306.93c-22.743 51.396-92.309 214.187-138.729 320.295-.066.049-12.162-.025-12.195-.041l-73.207-172.432c-29.012 56.904-61.16 116.059-88.65 172.35-.164.286-13.3.131-13.316-.049-42.025-98.095-85.598-195.544-127.844-293.566-9.78-23.963-44.088-62.502-67.569-62.281 0-2.782-.131-8.994-.163-12.751l144.712-.016-.115 12.53c-16.99.785-46.355 11.629-38.744 30.388 20.395 44.038 92.612 214.645 112.131 257.956 13.619-26.656 51.65-97.711 67.315-127.747-12.276-25.191-52.845-119.243-65.007-142.928-9.174-15.443-32.196-17.334-49.923-17.604 0-3.953.205-6.997.131-12.423l127.206.393v11.556c-17.219.474-33.522 6.882-26.132 23.349 17.113 35.519 27.106 60.808 42.811 93.659 5.017-9.624 30.732-62.379 42.992-90.222 7.406-18.512-3.659-25.444-34.636-26.279.409-3.045.139-9.158.409-12.072l109.864.107.05 11.466c-20.191.785-41.093 11.539-52.003 28.235L442.32 408.52c5.803 14.51 56.667 127.509 62.02 140.039l109.373-252.457c-7.784-20.436-32.606-25.002-42.312-25.223.065-3.258.081-8.225.098-12.375l114.177.328.163.573-.188 11.408c-25.052.761-40.544 14.159-49.817 36.117z" fill="currentColor"/></g><defs><clipPath id="clip0_446_108"><path fill="#fff" d="M0 0h800v800H0z"/></clipPath></defs></svg>